<?xml version="1.0" encoding="UTF-8" standalone="no"?>
<!-- Generator: Adobe Illustrator 22.0.1, SVG Export Plug-In . SVG Version: 6.00 Build 0)  -->

<svg
   version="1.1"
   id="レイヤー_1"
   x="0px"
   y="0px"
   viewBox="0 0 109 109"
   xml:space="preserve"
   sodipodi:docname="canvasworkspace.svg"
   width="109"
   height="109"
   inkscape:version="1.3.2 (091e20ef0f, 2023-11-25)"
   xmlns:inkscape="http://www.inkscape.org/namespaces/inkscape"
   xmlns:sodipodi="http://sodipodi.sourceforge.net/DTD/sodipodi-0.dtd"
   xmlns="http://www.w3.org/2000/svg"
   xmlns:svg="http://www.w3.org/2000/svg"><defs
   id="defs131" /><sodipodi:namedview
   id="namedview131"
   pagecolor="#ffffff"
   bordercolor="#000000"
   borderopacity="0.25"
   inkscape:showpageshadow="2"
   inkscape:pageopacity="0.0"
   inkscape:pagecheckerboard="0"
   inkscape:deskcolor="#d1d1d1"
   inkscape:zoom="4.1319087"
   inkscape:cx="220.84225"
   inkscape:cy="29.405297"
   inkscape:window-width="2560"
   inkscape:window-height="1315"
   inkscape:window-x="0"
   inkscape:window-y="32"
   inkscape:window-maximized="1"
   inkscape:current-layer="g131" />
<style
   type="text/css"
   id="style1">
	.st0{fill:#4D4D4D;}
	.st1{fill:#FFFFFF;}
	.st2{fill:#3D8499;}
	.st3{fill:#3D4899;}
	.st4{fill:#CC8D29;}
	.st5{fill:#DD72B9;}
	.st6{fill:#F4BD4D;}
	.st7{fill:#66C5D6;}
	.st8{fill:#5071E6;}
	.st9{fill:#B3369C;}
	.st10{filter:url(#Adobe_OpacityMaskFilter);}
	.st11{fill:url(#SVGID_2_);}
	.st12{mask:url(#SVGID_1_);fill:#C39743;}
	.st13{filter:url(#Adobe_OpacityMaskFilter_1_);}
	.st14{fill:url(#SVGID_4_);}
	.st15{mask:url(#SVGID_3_);fill:#C3973E;}
	.st16{filter:url(#Adobe_OpacityMaskFilter_2_);}
	.st17{fill:url(#SVGID_6_);}
	.st18{mask:url(#SVGID_5_);fill:#529EAB;}
	.st19{filter:url(#Adobe_OpacityMaskFilter_3_);}
	.st20{fill:url(#SVGID_8_);}
	.st21{mask:url(#SVGID_7_);fill:#529EAB;}
	.st22{filter:url(#Adobe_OpacityMaskFilter_4_);}
	.st23{fill:url(#SVGID_10_);}
	.st24{mask:url(#SVGID_9_);fill:#405AB8;}
	.st25{filter:url(#Adobe_OpacityMaskFilter_5_);}
	.st26{fill:url(#SVGID_12_);}
	.st27{mask:url(#SVGID_11_);fill:#405AB8;}
	.st28{filter:url(#Adobe_OpacityMaskFilter_6_);}
	.st29{fill:url(#SVGID_14_);}
	.st30{mask:url(#SVGID_13_);fill:#B15B94;}
	.st31{filter:url(#Adobe_OpacityMaskFilter_7_);}
	.st32{fill:url(#SVGID_16_);}
	.st33{mask:url(#SVGID_15_);fill:#B15B94;}
	.st34{filter:url(#Adobe_OpacityMaskFilter_8_);}
	.st35{fill:url(#SVGID_18_);}
	.st36{mask:url(#SVGID_17_);fill:#C39743;}
	.st37{filter:url(#Adobe_OpacityMaskFilter_9_);}
	.st38{fill:url(#SVGID_20_);}
	.st39{mask:url(#SVGID_19_);fill:#C3973E;}
	.st40{filter:url(#Adobe_OpacityMaskFilter_10_);}
	.st41{fill:url(#SVGID_22_);}
	.st42{mask:url(#SVGID_21_);fill:#529EAB;}
	.st43{filter:url(#Adobe_OpacityMaskFilter_11_);}
	.st44{fill:url(#SVGID_24_);}
	.st45{mask:url(#SVGID_23_);fill:#529EAB;}
	.st46{filter:url(#Adobe_OpacityMaskFilter_12_);}
	.st47{fill:url(#SVGID_26_);}
	.st48{mask:url(#SVGID_25_);fill:#405AB8;}
	.st49{filter:url(#Adobe_OpacityMaskFilter_13_);}
	.st50{fill:url(#SVGID_28_);}
	.st51{mask:url(#SVGID_27_);fill:#405AB8;}
	.st52{filter:url(#Adobe_OpacityMaskFilter_14_);}
	.st53{fill:url(#SVGID_30_);}
	.st54{mask:url(#SVGID_29_);fill:#B15B94;}
	.st55{filter:url(#Adobe_OpacityMaskFilter_15_);}
	.st56{fill:url(#SVGID_32_);}
	.st57{mask:url(#SVGID_31_);fill:#B15B94;}
	.st58{filter:url(#Adobe_OpacityMaskFilter_16_);}
	.st59{fill:url(#SVGID_34_);}
	.st60{mask:url(#SVGID_33_);fill:#8F2B7D;}
	.st61{filter:url(#Adobe_OpacityMaskFilter_17_);}
	.st62{fill:url(#SVGID_36_);}
	.st63{mask:url(#SVGID_35_);fill:#8F2B7D;}
	.st64{filter:url(#Adobe_OpacityMaskFilter_18_);}
	.st65{fill:url(#SVGID_38_);}
	.st66{mask:url(#SVGID_37_);fill:#A37121;}
	.st67{filter:url(#Adobe_OpacityMaskFilter_19_);}
	.st68{fill:url(#SVGID_40_);}
	.st69{mask:url(#SVGID_39_);fill:#A37121;}
	.st70{filter:url(#Adobe_OpacityMaskFilter_20_);}
	.st71{fill:url(#SVGID_42_);}
	.st72{mask:url(#SVGID_41_);fill:#316A7A;}
	.st73{filter:url(#Adobe_OpacityMaskFilter_21_);}
	.st74{fill:url(#SVGID_44_);}
	.st75{mask:url(#SVGID_43_);fill:#316A7A;}
	.st76{filter:url(#Adobe_OpacityMaskFilter_22_);}
	.st77{fill:url(#SVGID_46_);}
	.st78{mask:url(#SVGID_45_);fill:#313A7A;}
	.st79{filter:url(#Adobe_OpacityMaskFilter_23_);}
	.st80{fill:url(#SVGID_48_);}
	.st81{mask:url(#SVGID_47_);fill:#313A7A;}
	.st82{filter:url(#Adobe_OpacityMaskFilter_24_);}
	.st83{fill:url(#SVGID_50_);}
	.st84{mask:url(#SVGID_49_);fill:#316A7A;}
	.st85{filter:url(#Adobe_OpacityMaskFilter_25_);}
	.st86{fill:url(#SVGID_52_);}
	.st87{mask:url(#SVGID_51_);fill:#316A7A;}
	.st88{filter:url(#Adobe_OpacityMaskFilter_26_);}
	.st89{fill:url(#SVGID_54_);}
	.st90{mask:url(#SVGID_53_);fill:#313A7A;}
	.st91{filter:url(#Adobe_OpacityMaskFilter_27_);}
	.st92{fill:url(#SVGID_56_);}
	.st93{mask:url(#SVGID_55_);fill:#313A7A;}
	.st94{filter:url(#Adobe_OpacityMaskFilter_28_);}
	.st95{fill:url(#SVGID_58_);}
	.st96{mask:url(#SVGID_57_);fill:#8F2B7D;}
	.st97{filter:url(#Adobe_OpacityMaskFilter_29_);}
	.st98{fill:url(#SVGID_60_);}
	.st99{mask:url(#SVGID_59_);fill:#8F2B7D;}
	.st100{filter:url(#Adobe_OpacityMaskFilter_30_);}
	.st101{fill:url(#SVGID_62_);}
	.st102{mask:url(#SVGID_61_);fill:#A37121;}
	.st103{filter:url(#Adobe_OpacityMaskFilter_31_);}
	.st104{fill:url(#SVGID_64_);}
	.st105{mask:url(#SVGID_63_);fill:#A37121;}
</style>
<g
   id="g131"
   transform="translate(15.247191,-0.72605652)">
	
	<g
   id="g130"
   transform="translate(1.7967625,0.82605652)">
		<g
   id="g18">
			<path
   class="st1"
   d="m 56.6,87.6 4.1,-9.9 9.9,-4.1 c 3.6,-1.5 5.3,-5.7 3.8,-9.3 l -4.1,-9.9 4.1,-9.9 c 1.5,-3.6 -0.2,-7.8 -3.8,-9.3 l -9.9,-4.1 -4.1,-9.9 c -1.5,-3.6 -5.7,-5.3 -9.3,-3.8 l -9.9,4.1 -9.9,-4.1 c -3.6,-1.5 -7.8,0.2 -9.3,3.8 l -4.1,9.9 -9.9,4.1 C 0.8,36.8 -1,41 0.5,44.6 l 4.1,9.9 -4.1,9.9 C -1,68 0.8,72.1 4.4,73.6 l 9.9,4.1 4.1,9.9 c 1.5,3.6 5.7,5.3 9.3,3.8 l 9.9,-4.1 9.9,4.1 c 3.5,1.5 7.6,-0.2 9.1,-3.8"
   id="path17" />
		</g>
		<g
   id="g129">
			<path
   class="st2"
   d="m 40.4,22.9 8,-3.3 c 0.8,-0.3 1.7,-0.3 2.5,-0.2 L 48.1,26 Z"
   id="path18" />
			<path
   class="st3"
   d="m 57.8,78.9 -3.3,8 c -0.4,0.8 -0.9,1.4 -1.6,1.9 l -2.8,-6.7 z"
   id="path19" />
			<path
   class="st2"
   d="m 34.6,86.2 -8,3.3 c -0.8,0.3 -1.7,0.3 -2.5,0.2 L 26.9,83 Z"
   id="path20" />
			<path
   class="st3"
   d="m 17.2,30.1 3.3,-8 c 0.4,-0.8 0.9,-1.4 1.6,-1.9 l 2.8,6.7 z"
   id="path21" />
			<path
   class="st4"
   d="m 61.9,34.2 8,3.3 c 0.8,0.4 1.4,0.9 1.9,1.6 l -6.7,2.8 z"
   id="path22" />
			<path
   class="st5"
   d="M 35.5,52.5 3.2,39.1 c 0.5,-0.8 1.3,-1.4 2.2,-1.8 l 20.3,-8.4 z"
   id="path23" />
			<path
   class="st6"
   d="M 2.3,67.9 C 2.1,67 2.2,66 2.6,65.1 L 11,44.8 34.6,54.6 Z"
   id="path24" />
			<path
   class="st7"
   d="M 35.5,56.5 22.1,88.8 C 21.3,88.3 20.7,87.5 20.3,86.6 L 11.9,66.3 Z"
   id="path25" />
			<path
   class="st8"
   d="M 50.9,89.7 C 50,89.9 49,89.8 48.1,89.4 L 27.8,81 37.6,57.4 Z"
   id="path26" />
			<path
   class="st9"
   d="m 69.1,57.4 3.3,8 c 0.3,0.8 0.3,1.7 0.2,2.5 l -6.7,-2.8 z"
   id="path27" />
			<path
   class="st5"
   d="m 39.5,56.5 32.3,13.4 c -0.5,0.8 -1.3,1.4 -2.2,1.8 l -20.3,8.4 z"
   id="path28" />
			<path
   class="st8"
   d="M 24.1,19.3 C 25,19.1 26,19.2 26.9,19.6 L 47.2,28 37.4,51.5 Z"
   id="path29" />
			<path
   class="st6"
   d="m 72.6,41.1 c 0.2,0.9 0.1,1.9 -0.3,2.8 L 63.9,64.2 40.3,54.4 Z"
   id="path30" />
			<path
   class="st7"
   d="M 39.5,52.5 52.9,20.2 c 0.8,0.5 1.4,1.3 1.8,2.2 l 8.4,20.3 z"
   id="path31" />
			<defs
   id="defs31">
				<filter
   id="Adobe_OpacityMaskFilter"
   filterUnits="userSpaceOnUse"
   x="40.400002"
   y="41.099998"
   width="32.400002"
   height="23.1">
					<feColorMatrix
   type="matrix"
   values="1 0 0 0 0  0 1 0 0 0  0 0 1 0 0  0 0 0 1 0"
   id="feColorMatrix31" />
				</filter>
			</defs>
			<mask
   maskUnits="userSpaceOnUse"
   x="40.4"
   y="41.1"
   width="32.4"
   height="23.1"
   id="SVGID_1_">
				<g
   class="st10"
   id="g33">
					
						<linearGradient
   id="SVGID_2_"
   gradientUnits="userSpaceOnUse"
   x1="432.04709"
   y1="94.044197"
   x2="432.04709"
   y2="69.335297"
   gradientTransform="matrix(-0.9239,-0.3827,0.3827,-0.9239,424.7705,288.7889)">
						<stop
   offset="0"
   style="stop-color:#000000"
   id="stop31" />
						<stop
   offset="0.95"
   style="stop-color:#000000"
   id="stop32" />
						<stop
   offset="1"
   style="stop-color:#FFFFFF"
   id="stop33" />
					</linearGradient>
					<path
   class="st11"
   d="m 72.6,41.1 c 0.2,0.9 0.1,1.9 -0.3,2.8 L 63.9,64.2 40.3,54.4 Z"
   id="path33" />
				</g>
			</mask>
			<path
   class="st12"
   d="m 72.6,41.1 c 0.2,0.9 0.1,1.9 -0.3,2.8 L 63.9,64.2 40.3,54.4 Z"
   mask="url(#SVGID_1_)"
   id="path34" />
			<defs
   id="defs34">
				<filter
   id="Adobe_OpacityMaskFilter_1_"
   filterUnits="userSpaceOnUse"
   x="40.400002"
   y="41.099998"
   width="32.400002"
   height="23.1">
					<feColorMatrix
   type="matrix"
   values="1 0 0 0 0  0 1 0 0 0  0 0 1 0 0  0 0 0 1 0"
   id="feColorMatrix34" />
				</filter>
			</defs>
			<mask
   maskUnits="userSpaceOnUse"
   x="40.4"
   y="41.1"
   width="32.4"
   height="23.1"
   id="SVGID_3_">
				<g
   class="st13"
   id="g36">
					
						<linearGradient
   id="SVGID_4_"
   gradientUnits="userSpaceOnUse"
   x1="444.79279"
   y1="81.689697"
   x2="419.30151"
   y2="81.689697"
   gradientTransform="matrix(-0.9239,-0.3827,0.3827,-0.9239,424.7705,288.7889)">
						<stop
   offset="0"
   style="stop-color:#000000"
   id="stop34" />
						<stop
   offset="0.975"
   style="stop-color:#000000"
   id="stop35" />
						<stop
   offset="1"
   style="stop-color:#FFFFFF"
   id="stop36" />
					</linearGradient>
					<path
   class="st14"
   d="m 72.6,41.1 c 0.2,0.9 0.1,1.9 -0.3,2.8 L 63.9,64.2 40.3,54.4 Z"
   id="path36" />
				</g>
			</mask>
			<path
   class="st15"
   d="m 72.6,41.1 c 0.2,0.9 0.1,1.9 -0.3,2.8 L 63.9,64.2 40.3,54.4 Z"
   mask="url(#SVGID_3_)"
   id="path37" />
			<defs
   id="defs37">
				<filter
   id="Adobe_OpacityMaskFilter_2_"
   filterUnits="userSpaceOnUse"
   x="39.5"
   y="20.200001"
   width="23.6"
   height="32.299999">
					<feColorMatrix
   type="matrix"
   values="1 0 0 0 0  0 1 0 0 0  0 0 1 0 0  0 0 0 1 0"
   id="feColorMatrix37" />
				</filter>
			</defs>
			<mask
   maskUnits="userSpaceOnUse"
   x="39.5"
   y="20.2"
   width="23.6"
   height="32.3"
   id="SVGID_5_">
				<g
   class="st16"
   id="g39">
					
						<linearGradient
   id="SVGID_6_"
   gradientUnits="userSpaceOnUse"
   x1="478.95291"
   y1="-185.98669"
   x2="478.95291"
   y2="-210.6935"
   gradientTransform="matrix(-0.9239,0.3827,-0.3827,-0.9239,413.1679,-330.3594)">
						<stop
   offset="0"
   style="stop-color:#000000"
   id="stop37" />
						<stop
   offset="0.95"
   style="stop-color:#000000"
   id="stop38" />
						<stop
   offset="1"
   style="stop-color:#FFFFFF"
   id="stop39" />
					</linearGradient>
					<path
   class="st17"
   d="m 52.9,20.2 c 0.8,0.5 1.4,1.3 1.8,2.2 l 8.4,20.3 -23.6,9.8 z"
   id="path39" />
				</g>
			</mask>
			<path
   class="st18"
   d="m 52.9,20.2 c 0.8,0.5 1.4,1.3 1.8,2.2 l 8.4,20.3 -23.6,9.8 z"
   mask="url(#SVGID_5_)"
   id="path40" />
			<defs
   id="defs40">
				<filter
   id="Adobe_OpacityMaskFilter_3_"
   filterUnits="userSpaceOnUse"
   x="39.5"
   y="20.200001"
   width="23.6"
   height="32.299999">
					<feColorMatrix
   type="matrix"
   values="1 0 0 0 0  0 1 0 0 0  0 0 1 0 0  0 0 0 1 0"
   id="feColorMatrix40" />
				</filter>
			</defs>
			<mask
   maskUnits="userSpaceOnUse"
   x="39.5"
   y="20.2"
   width="23.6"
   height="32.3"
   id="SVGID_7_">
				<g
   class="st19"
   id="g42">
					
						<linearGradient
   id="SVGID_8_"
   gradientUnits="userSpaceOnUse"
   x1="491.69821"
   y1="-198.3401"
   x2="466.2077"
   y2="-198.3401"
   gradientTransform="matrix(-0.9239,0.3827,-0.3827,-0.9239,413.1679,-330.3594)">
						<stop
   offset="0"
   style="stop-color:#000000"
   id="stop40" />
						<stop
   offset="0.975"
   style="stop-color:#000000"
   id="stop41" />
						<stop
   offset="1"
   style="stop-color:#FFFFFF"
   id="stop42" />
					</linearGradient>
					<path
   class="st20"
   d="m 52.9,20.2 c 0.8,0.5 1.4,1.3 1.8,2.2 l 8.4,20.3 -23.6,9.8 z"
   id="path42" />
				</g>
			</mask>
			<path
   class="st21"
   d="m 52.9,20.2 c 0.8,0.5 1.4,1.3 1.8,2.2 l 8.4,20.3 -23.6,9.8 z"
   mask="url(#SVGID_7_)"
   id="path43" />
			<defs
   id="defs43">
				<filter
   id="Adobe_OpacityMaskFilter_4_"
   filterUnits="userSpaceOnUse"
   x="24.1"
   y="19.299999"
   width="23.1"
   height="32.400002">
					<feColorMatrix
   type="matrix"
   values="1 0 0 0 0  0 1 0 0 0  0 0 1 0 0  0 0 0 1 0"
   id="feColorMatrix43" />
				</filter>
			</defs>
			<mask
   maskUnits="userSpaceOnUse"
   x="24.1"
   y="19.3"
   width="23.1"
   height="32.4"
   id="SVGID_9_">
				<g
   class="st22"
   id="g45">
					
						<linearGradient
   id="SVGID_10_"
   gradientUnits="userSpaceOnUse"
   x1="710.42462"
   y1="-350.95419"
   x2="710.42462"
   y2="-375.66089"
   gradientTransform="matrix(-0.3827,0.9239,-0.9239,-0.3827,-32.8322,-760.2726)">
						<stop
   offset="0"
   style="stop-color:#000000"
   id="stop43" />
						<stop
   offset="0.95"
   style="stop-color:#000000"
   id="stop44" />
						<stop
   offset="1"
   style="stop-color:#FFFFFF"
   id="stop45" />
					</linearGradient>
					<path
   class="st23"
   d="M 24.1,19.3 C 25,19.1 26,19.2 26.9,19.6 L 47.2,28 37.4,51.6 Z"
   id="path45" />
				</g>
			</mask>
			<path
   class="st24"
   d="M 24.1,19.3 C 25,19.1 26,19.2 26.9,19.6 L 47.2,28 37.4,51.6 Z"
   mask="url(#SVGID_9_)"
   id="path46" />
			<defs
   id="defs46">
				<filter
   id="Adobe_OpacityMaskFilter_5_"
   filterUnits="userSpaceOnUse"
   x="24.1"
   y="19.299999"
   width="23.1"
   height="32.400002">
					<feColorMatrix
   type="matrix"
   values="1 0 0 0 0  0 1 0 0 0  0 0 1 0 0  0 0 0 1 0"
   id="feColorMatrix46" />
				</filter>
			</defs>
			<mask
   maskUnits="userSpaceOnUse"
   x="24.1"
   y="19.3"
   width="23.1"
   height="32.4"
   id="SVGID_11_">
				<g
   class="st25"
   id="g48">
					
						<linearGradient
   id="SVGID_12_"
   gradientUnits="userSpaceOnUse"
   x1="723.17029"
   y1="-363.30759"
   x2="697.67877"
   y2="-363.30759"
   gradientTransform="matrix(-0.3827,0.9239,-0.9239,-0.3827,-32.8322,-760.2726)">
						<stop
   offset="0"
   style="stop-color:#000000"
   id="stop46" />
						<stop
   offset="0.975"
   style="stop-color:#000000"
   id="stop47" />
						<stop
   offset="1"
   style="stop-color:#FFFFFF"
   id="stop48" />
					</linearGradient>
					<path
   class="st26"
   d="M 24.1,19.3 C 25,19.1 26,19.2 26.9,19.6 L 47.2,28 37.4,51.6 Z"
   id="path48" />
				</g>
			</mask>
			<path
   class="st27"
   d="M 24.1,19.3 C 25,19.1 26,19.2 26.9,19.6 L 47.2,28 37.4,51.6 Z"
   mask="url(#SVGID_11_)"
   id="path49" />
			<defs
   id="defs49">
				<filter
   id="Adobe_OpacityMaskFilter_6_"
   filterUnits="userSpaceOnUse"
   x="3.2"
   y="28.9"
   width="32.299999"
   height="23.6">
					<feColorMatrix
   type="matrix"
   values="1 0 0 0 0  0 1 0 0 0  0 0 1 0 0  0 0 0 1 0"
   id="feColorMatrix49" />
				</filter>
			</defs>
			<mask
   maskUnits="userSpaceOnUse"
   x="3.2"
   y="28.9"
   width="32.3"
   height="23.6"
   id="SVGID_13_">
				<g
   class="st28"
   id="g51">
					
						<linearGradient
   id="SVGID_14_"
   gradientUnits="userSpaceOnUse"
   x1="990.46191"
   y1="-303.79041"
   x2="990.46191"
   y2="-328.49789"
   gradientTransform="matrix(0.3827,0.9239,-0.9239,0.3827,-651.9756,-748.6749)">
						<stop
   offset="0"
   style="stop-color:#000000"
   id="stop49" />
						<stop
   offset="0.95"
   style="stop-color:#000000"
   id="stop50" />
						<stop
   offset="1"
   style="stop-color:#FFFFFF"
   id="stop51" />
					</linearGradient>
					<path
   class="st29"
   d="m 3.2,39.1 c 0.5,-0.8 1.3,-1.4 2.2,-1.8 l 20.3,-8.4 9.8,23.6 z"
   id="path51" />
				</g>
			</mask>
			<path
   class="st30"
   d="m 3.2,39.1 c 0.5,-0.8 1.3,-1.4 2.2,-1.8 l 20.3,-8.4 9.8,23.6 z"
   mask="url(#SVGID_13_)"
   id="path52" />
			<defs
   id="defs52">
				<filter
   id="Adobe_OpacityMaskFilter_7_"
   filterUnits="userSpaceOnUse"
   x="3.2"
   y="28.9"
   width="32.299999"
   height="23.6">
					<feColorMatrix
   type="matrix"
   values="1 0 0 0 0  0 1 0 0 0  0 0 1 0 0  0 0 0 1 0"
   id="feColorMatrix52" />
				</filter>
			</defs>
			<mask
   maskUnits="userSpaceOnUse"
   x="3.2"
   y="28.9"
   width="32.3"
   height="23.6"
   id="SVGID_15_">
				<g
   class="st31"
   id="g54">
					
						<linearGradient
   id="SVGID_16_"
   gradientUnits="userSpaceOnUse"
   x1="1003.2076"
   y1="-316.14441"
   x2="977.71613"
   y2="-316.14441"
   gradientTransform="matrix(0.3827,0.9239,-0.9239,0.3827,-651.9756,-748.6749)">
						<stop
   offset="0"
   style="stop-color:#000000"
   id="stop52" />
						<stop
   offset="0.975"
   style="stop-color:#000000"
   id="stop53" />
						<stop
   offset="1"
   style="stop-color:#FFFFFF"
   id="stop54" />
					</linearGradient>
					<path
   class="st32"
   d="m 3.2,39.1 c 0.5,-0.8 1.3,-1.4 2.2,-1.8 l 20.3,-8.4 9.8,23.6 z"
   id="path54" />
				</g>
			</mask>
			<path
   class="st33"
   d="m 3.2,39.1 c 0.5,-0.8 1.3,-1.4 2.2,-1.8 l 20.3,-8.4 9.8,23.6 z"
   mask="url(#SVGID_15_)"
   id="path55" />
			<defs
   id="defs55">
				<filter
   id="Adobe_OpacityMaskFilter_8_"
   filterUnits="userSpaceOnUse"
   x="2.2"
   y="44.700001"
   width="32.400002"
   height="23.1">
					<feColorMatrix
   type="matrix"
   values="1 0 0 0 0  0 1 0 0 0  0 0 1 0 0  0 0 0 1 0"
   id="feColorMatrix55" />
				</filter>
			</defs>
			<mask
   maskUnits="userSpaceOnUse"
   x="2.2"
   y="44.7"
   width="32.4"
   height="23.1"
   id="SVGID_17_">
				<g
   class="st34"
   id="g57">
					
						<linearGradient
   id="SVGID_18_"
   gradientUnits="userSpaceOnUse"
   x1="1155.4264"
   y1="-72.571503"
   x2="1155.4264"
   y2="-97.281502"
   gradientTransform="matrix(0.9239,0.3827,-0.3827,0.9239,-1081.8947,-302.6758)">
						<stop
   offset="0"
   style="stop-color:#000000"
   id="stop55" />
						<stop
   offset="0.95"
   style="stop-color:#000000"
   id="stop56" />
						<stop
   offset="1"
   style="stop-color:#FFFFFF"
   id="stop57" />
					</linearGradient>
					<path
   class="st35"
   d="M 2.3,67.9 C 2.1,67 2.2,66 2.6,65.1 L 11,44.8 34.6,54.6 Z"
   id="path57" />
				</g>
			</mask>
			<path
   class="st36"
   d="M 2.3,67.9 C 2.1,67 2.2,66 2.6,65.1 L 11,44.8 34.6,54.6 Z"
   mask="url(#SVGID_17_)"
   id="path58" />
			<defs
   id="defs58">
				<filter
   id="Adobe_OpacityMaskFilter_9_"
   filterUnits="userSpaceOnUse"
   x="2.2"
   y="44.700001"
   width="32.400002"
   height="23.1">
					<feColorMatrix
   type="matrix"
   values="1 0 0 0 0  0 1 0 0 0  0 0 1 0 0  0 0 0 1 0"
   id="feColorMatrix58" />
				</filter>
			</defs>
			<mask
   maskUnits="userSpaceOnUse"
   x="2.2"
   y="44.7"
   width="32.4"
   height="23.1"
   id="SVGID_19_">
				<g
   class="st37"
   id="g60">
					
						<linearGradient
   id="SVGID_20_"
   gradientUnits="userSpaceOnUse"
   x1="1168.1725"
   y1="-84.926498"
   x2="1142.6804"
   y2="-84.926498"
   gradientTransform="matrix(0.9239,0.3827,-0.3827,0.9239,-1081.8947,-302.6758)">
						<stop
   offset="0"
   style="stop-color:#000000"
   id="stop58" />
						<stop
   offset="0.975"
   style="stop-color:#000000"
   id="stop59" />
						<stop
   offset="1"
   style="stop-color:#FFFFFF"
   id="stop60" />
					</linearGradient>
					<path
   class="st38"
   d="M 2.3,67.9 C 2.1,67 2.2,66 2.6,65.1 L 11,44.8 34.6,54.6 Z"
   id="path60" />
				</g>
			</mask>
			<path
   class="st39"
   d="M 2.3,67.9 C 2.1,67 2.2,66 2.6,65.1 L 11,44.8 34.6,54.6 Z"
   mask="url(#SVGID_19_)"
   id="path61" />
			<defs
   id="defs61">
				<filter
   id="Adobe_OpacityMaskFilter_10_"
   filterUnits="userSpaceOnUse"
   x="11.9"
   y="56.5"
   width="23.6"
   height="32.299999">
					<feColorMatrix
   type="matrix"
   values="1 0 0 0 0  0 1 0 0 0  0 0 1 0 0  0 0 0 1 0"
   id="feColorMatrix61" />
				</filter>
			</defs>
			<mask
   maskUnits="userSpaceOnUse"
   x="11.9"
   y="56.5"
   width="23.6"
   height="32.3"
   id="SVGID_21_">
				<g
   class="st40"
   id="g63">
					
						<linearGradient
   id="SVGID_22_"
   gradientUnits="userSpaceOnUse"
   x1="1108.2688"
   y1="207.7137"
   x2="1108.2688"
   y2="183.0054"
   gradientTransform="matrix(0.9239,-0.3827,0.3827,0.9239,-1070.2906,316.4743)">
						<stop
   offset="0"
   style="stop-color:#000000"
   id="stop61" />
						<stop
   offset="0.95"
   style="stop-color:#000000"
   id="stop62" />
						<stop
   offset="1"
   style="stop-color:#FFFFFF"
   id="stop63" />
					</linearGradient>
					<path
   class="st41"
   d="M 22.1,88.8 C 21.3,88.3 20.7,87.5 20.3,86.6 L 11.9,66.3 35.5,56.5 Z"
   id="path63" />
				</g>
			</mask>
			<path
   class="st42"
   d="M 22.1,88.8 C 21.3,88.3 20.7,87.5 20.3,86.6 L 11.9,66.3 35.5,56.5 Z"
   mask="url(#SVGID_21_)"
   id="path64" />
			<defs
   id="defs64">
				<filter
   id="Adobe_OpacityMaskFilter_11_"
   filterUnits="userSpaceOnUse"
   x="11.9"
   y="56.5"
   width="23.6"
   height="32.299999">
					<feColorMatrix
   type="matrix"
   values="1 0 0 0 0  0 1 0 0 0  0 0 1 0 0  0 0 0 1 0"
   id="feColorMatrix64" />
				</filter>
			</defs>
			<mask
   maskUnits="userSpaceOnUse"
   x="11.9"
   y="56.5"
   width="23.6"
   height="32.3"
   id="SVGID_23_">
				<g
   class="st43"
   id="g66">
					
						<linearGradient
   id="SVGID_24_"
   gradientUnits="userSpaceOnUse"
   x1="1121.0148"
   y1="195.3595"
   x2="1095.5227"
   y2="195.3595"
   gradientTransform="matrix(0.9239,-0.3827,0.3827,0.9239,-1070.2906,316.4743)">
						<stop
   offset="0"
   style="stop-color:#000000"
   id="stop64" />
						<stop
   offset="0.975"
   style="stop-color:#000000"
   id="stop65" />
						<stop
   offset="1"
   style="stop-color:#FFFFFF"
   id="stop66" />
					</linearGradient>
					<path
   class="st44"
   d="M 22.1,88.8 C 21.3,88.3 20.7,87.5 20.3,86.6 L 11.9,66.3 35.5,56.5 Z"
   id="path66" />
				</g>
			</mask>
			<path
   class="st45"
   d="M 22.1,88.8 C 21.3,88.3 20.7,87.5 20.3,86.6 L 11.9,66.3 35.5,56.5 Z"
   mask="url(#SVGID_23_)"
   id="path67" />
			<defs
   id="defs67">
				<filter
   id="Adobe_OpacityMaskFilter_12_"
   filterUnits="userSpaceOnUse"
   x="27.700001"
   y="57.400002"
   width="23.1"
   height="32.400002">
					<feColorMatrix
   type="matrix"
   values="1 0 0 0 0  0 1 0 0 0  0 0 1 0 0  0 0 0 1 0"
   id="feColorMatrix67" />
				</filter>
			</defs>
			<mask
   maskUnits="userSpaceOnUse"
   x="27.7"
   y="57.4"
   width="23.1"
   height="32.4"
   id="SVGID_25_">
				<g
   class="st46"
   id="g69">
					
						<linearGradient
   id="SVGID_26_"
   gradientUnits="userSpaceOnUse"
   x1="877.04303"
   y1="372.41751"
   x2="877.04303"
   y2="347.70981"
   gradientTransform="matrix(0.3827,-0.9239,0.9239,0.3827,-624.2866,746.3906)">
						<stop
   offset="0"
   style="stop-color:#000000"
   id="stop67" />
						<stop
   offset="0.95"
   style="stop-color:#000000"
   id="stop68" />
						<stop
   offset="1"
   style="stop-color:#FFFFFF"
   id="stop69" />
					</linearGradient>
					<path
   class="st47"
   d="M 50.9,89.7 C 50,89.9 49,89.8 48.1,89.4 L 27.8,81 37.6,57.4 Z"
   id="path69" />
				</g>
			</mask>
			<path
   class="st48"
   d="M 50.9,89.7 C 50,89.9 49,89.8 48.1,89.4 L 27.8,81 37.6,57.4 Z"
   mask="url(#SVGID_25_)"
   id="path70" />
			<defs
   id="defs70">
				<filter
   id="Adobe_OpacityMaskFilter_13_"
   filterUnits="userSpaceOnUse"
   x="27.700001"
   y="57.400002"
   width="23.1"
   height="32.400002">
					<feColorMatrix
   type="matrix"
   values="1 0 0 0 0  0 1 0 0 0  0 0 1 0 0  0 0 0 1 0"
   id="feColorMatrix70" />
				</filter>
			</defs>
			<mask
   maskUnits="userSpaceOnUse"
   x="27.7"
   y="57.4"
   width="23.1"
   height="32.4"
   id="SVGID_27_">
				<g
   class="st49"
   id="g72">
					
						<linearGradient
   id="SVGID_28_"
   gradientUnits="userSpaceOnUse"
   x1="889.78857"
   y1="360.06369"
   x2="864.2973"
   y2="360.06369"
   gradientTransform="matrix(0.3827,-0.9239,0.9239,0.3827,-624.2866,746.3906)">
						<stop
   offset="0"
   style="stop-color:#000000"
   id="stop70" />
						<stop
   offset="0.975"
   style="stop-color:#000000"
   id="stop71" />
						<stop
   offset="1"
   style="stop-color:#FFFFFF"
   id="stop72" />
					</linearGradient>
					<path
   class="st50"
   d="M 50.9,89.7 C 50,89.9 49,89.8 48.1,89.4 L 27.8,81 37.6,57.4 Z"
   id="path72" />
				</g>
			</mask>
			<path
   class="st51"
   d="M 50.9,89.7 C 50,89.9 49,89.8 48.1,89.4 L 27.8,81 37.6,57.4 Z"
   mask="url(#SVGID_27_)"
   id="path73" />
			<defs
   id="defs73">
				<filter
   id="Adobe_OpacityMaskFilter_14_"
   filterUnits="userSpaceOnUse"
   x="39.5"
   y="56.5"
   width="32.299999"
   height="23.6">
					<feColorMatrix
   type="matrix"
   values="1 0 0 0 0  0 1 0 0 0  0 0 1 0 0  0 0 0 1 0"
   id="feColorMatrix73" />
				</filter>
			</defs>
			<mask
   maskUnits="userSpaceOnUse"
   x="39.5"
   y="56.5"
   width="32.3"
   height="23.6"
   id="SVGID_29_">
				<g
   class="st52"
   id="g75">
					
						<linearGradient
   id="SVGID_30_"
   gradientUnits="userSpaceOnUse"
   x1="596.76141"
   y1="325.5209"
   x2="596.76141"
   y2="300.81339"
   gradientTransform="matrix(-0.3827,-0.9239,0.9239,-0.3827,-5.1446,734.7871)">
						<stop
   offset="0"
   style="stop-color:#000000"
   id="stop73" />
						<stop
   offset="0.95"
   style="stop-color:#000000"
   id="stop74" />
						<stop
   offset="1"
   style="stop-color:#FFFFFF"
   id="stop75" />
					</linearGradient>
					<path
   class="st53"
   d="m 71.8,69.9 c -0.5,0.8 -1.3,1.4 -2.2,1.8 L 49.3,80.1 39.5,56.5 Z"
   id="path75" />
				</g>
			</mask>
			<path
   class="st54"
   d="m 71.8,69.9 c -0.5,0.8 -1.3,1.4 -2.2,1.8 L 49.3,80.1 39.5,56.5 Z"
   mask="url(#SVGID_29_)"
   id="path76" />
			<defs
   id="defs76">
				<filter
   id="Adobe_OpacityMaskFilter_15_"
   filterUnits="userSpaceOnUse"
   x="39.5"
   y="56.5"
   width="32.299999"
   height="23.6">
					<feColorMatrix
   type="matrix"
   values="1 0 0 0 0  0 1 0 0 0  0 0 1 0 0  0 0 0 1 0"
   id="feColorMatrix76" />
				</filter>
			</defs>
			<mask
   maskUnits="userSpaceOnUse"
   x="39.5"
   y="56.5"
   width="32.3"
   height="23.6"
   id="SVGID_31_">
				<g
   class="st55"
   id="g78">
					
						<linearGradient
   id="SVGID_32_"
   gradientUnits="userSpaceOnUse"
   x1="609.5083"
   y1="313.16711"
   x2="584.01593"
   y2="313.16711"
   gradientTransform="matrix(-0.3827,-0.9239,0.9239,-0.3827,-5.1446,734.7871)">
						<stop
   offset="0"
   style="stop-color:#000000"
   id="stop76" />
						<stop
   offset="0.975"
   style="stop-color:#000000"
   id="stop77" />
						<stop
   offset="1"
   style="stop-color:#FFFFFF"
   id="stop78" />
					</linearGradient>
					<path
   class="st56"
   d="m 71.8,69.9 c -0.5,0.8 -1.3,1.4 -2.2,1.8 L 49.3,80.1 39.5,56.5 Z"
   id="path78" />
				</g>
			</mask>
			<path
   class="st57"
   d="m 71.8,69.9 c -0.5,0.8 -1.3,1.4 -2.2,1.8 L 49.3,80.1 39.5,56.5 Z"
   mask="url(#SVGID_31_)"
   id="path79" />
			<defs
   id="defs79">
				<filter
   id="Adobe_OpacityMaskFilter_16_"
   filterUnits="userSpaceOnUse"
   x="65.900002"
   y="57.400002"
   width="6.8000002"
   height="10.5">
					<feColorMatrix
   type="matrix"
   values="1 0 0 0 0  0 1 0 0 0  0 0 1 0 0  0 0 0 1 0"
   id="feColorMatrix79" />
				</filter>
			</defs>
			<mask
   maskUnits="userSpaceOnUse"
   x="65.9"
   y="57.4"
   width="6.8"
   height="10.5"
   id="SVGID_33_">
				<g
   class="st58"
   id="g81">
					
						<linearGradient
   id="SVGID_34_"
   gradientUnits="userSpaceOnUse"
   x1="413.47449"
   y1="93.980904"
   x2="413.47449"
   y2="69.344101"
   gradientTransform="matrix(-0.9239,-0.3827,0.3827,-0.9239,424.7705,288.7889)">
						<stop
   offset="0"
   style="stop-color:#000000"
   id="stop79" />
						<stop
   offset="0.95"
   style="stop-color:#000000"
   id="stop80" />
						<stop
   offset="1"
   style="stop-color:#FFFFFF"
   id="stop81" />
					</linearGradient>
					<path
   class="st59"
   d="m 69.1,57.4 3.3,8 c 0.3,0.8 0.3,1.7 0.2,2.5 l -6.7,-2.8 z"
   id="path81" />
				</g>
			</mask>
			<path
   class="st60"
   d="m 69.1,57.4 3.3,8 c 0.3,0.8 0.3,1.7 0.2,2.5 l -6.7,-2.8 z"
   mask="url(#SVGID_33_)"
   id="path82" />
			<defs
   id="defs82">
				<filter
   id="Adobe_OpacityMaskFilter_17_"
   filterUnits="userSpaceOnUse"
   x="65.900002"
   y="57.400002"
   width="6.8000002"
   height="10.5">
					<feColorMatrix
   type="matrix"
   values="1 0 0 0 0  0 1 0 0 0  0 0 1 0 0  0 0 0 1 0"
   id="feColorMatrix82" />
				</filter>
			</defs>
			<mask
   maskUnits="userSpaceOnUse"
   x="65.9"
   y="57.4"
   width="6.8"
   height="10.5"
   id="SVGID_35_">
				<g
   class="st61"
   id="g84">
					
						<linearGradient
   id="SVGID_36_"
   gradientUnits="userSpaceOnUse"
   x1="391.64481"
   y1="73.503098"
   x2="417.05389"
   y2="73.503098"
   gradientTransform="matrix(-0.9239,-0.3827,0.3827,-0.9239,424.7705,288.7889)">
						<stop
   offset="0"
   style="stop-color:#000000"
   id="stop82" />
						<stop
   offset="0.975"
   style="stop-color:#000000"
   id="stop83" />
						<stop
   offset="1"
   style="stop-color:#FFFFFF"
   id="stop84" />
					</linearGradient>
					<path
   class="st62"
   d="m 69.1,57.4 3.3,8 c 0.3,0.8 0.3,1.7 0.2,2.5 l -6.7,-2.8 z"
   id="path84" />
				</g>
			</mask>
			<path
   class="st63"
   d="m 69.1,57.4 3.3,8 c 0.3,0.8 0.3,1.7 0.2,2.5 l -6.7,-2.8 z"
   mask="url(#SVGID_35_)"
   id="path85" />
			<defs
   id="defs85">
				<filter
   id="Adobe_OpacityMaskFilter_18_"
   filterUnits="userSpaceOnUse"
   x="61.900002"
   y="34.200001"
   width="9.8999996"
   height="7.6999998">
					<feColorMatrix
   type="matrix"
   values="1 0 0 0 0  0 1 0 0 0  0 0 1 0 0  0 0 0 1 0"
   id="feColorMatrix85" />
				</filter>
			</defs>
			<mask
   maskUnits="userSpaceOnUse"
   x="61.9"
   y="34.2"
   width="9.9"
   height="7.7"
   id="SVGID_37_">
				<g
   class="st64"
   id="g87">
					
						<linearGradient
   id="SVGID_38_"
   gradientUnits="userSpaceOnUse"
   x1="460.38199"
   y1="-186.0528"
   x2="460.38199"
   y2="-210.6848"
   gradientTransform="matrix(-0.9239,0.3827,-0.3827,-0.9239,413.1679,-330.3594)">
						<stop
   offset="0"
   style="stop-color:#000000"
   id="stop85" />
						<stop
   offset="0.95"
   style="stop-color:#000000"
   id="stop86" />
						<stop
   offset="1"
   style="stop-color:#FFFFFF"
   id="stop87" />
					</linearGradient>
					<path
   class="st65"
   d="m 61.9,34.2 8,3.3 c 0.8,0.4 1.4,0.9 1.9,1.6 l -6.7,2.8 z"
   id="path87" />
				</g>
			</mask>
			<path
   class="st66"
   d="m 61.9,34.2 8,3.3 c 0.8,0.4 1.4,0.9 1.9,1.6 l -6.7,2.8 z"
   mask="url(#SVGID_37_)"
   id="path88" />
			<defs
   id="defs88">
				<filter
   id="Adobe_OpacityMaskFilter_19_"
   filterUnits="userSpaceOnUse"
   x="61.900002"
   y="34.200001"
   width="9.8999996"
   height="7.6999998">
					<feColorMatrix
   type="matrix"
   values="1 0 0 0 0  0 1 0 0 0  0 0 1 0 0  0 0 0 1 0"
   id="feColorMatrix88" />
				</filter>
			</defs>
			<mask
   maskUnits="userSpaceOnUse"
   x="61.9"
   y="34.2"
   width="9.9"
   height="7.7"
   id="SVGID_39_">
				<g
   class="st67"
   id="g90">
					
						<linearGradient
   id="SVGID_40_"
   gradientUnits="userSpaceOnUse"
   x1="438.55951"
   y1="-206.5266"
   x2="463.9603"
   y2="-206.5266"
   gradientTransform="matrix(-0.9239,0.3827,-0.3827,-0.9239,413.1679,-330.3594)">
						<stop
   offset="0"
   style="stop-color:#000000"
   id="stop88" />
						<stop
   offset="0.975"
   style="stop-color:#000000"
   id="stop89" />
						<stop
   offset="1"
   style="stop-color:#FFFFFF"
   id="stop90" />
					</linearGradient>
					<path
   class="st68"
   d="m 61.9,34.2 8,3.3 c 0.8,0.4 1.4,0.9 1.9,1.6 l -6.7,2.8 z"
   id="path90" />
				</g>
			</mask>
			<path
   class="st69"
   d="m 61.9,34.2 8,3.3 c 0.8,0.4 1.4,0.9 1.9,1.6 l -6.7,2.8 z"
   mask="url(#SVGID_39_)"
   id="path91" />
			<defs
   id="defs91">
				<filter
   id="Adobe_OpacityMaskFilter_20_"
   filterUnits="userSpaceOnUse"
   x="40.400002"
   y="19.299999"
   width="10.5"
   height="6.8000002">
					<feColorMatrix
   type="matrix"
   values="1 0 0 0 0  0 1 0 0 0  0 0 1 0 0  0 0 0 1 0"
   id="feColorMatrix91" />
				</filter>
			</defs>
			<mask
   maskUnits="userSpaceOnUse"
   x="40.4"
   y="19.3"
   width="10.5"
   height="6.8"
   id="SVGID_41_">
				<g
   class="st70"
   id="g93">
					
						<linearGradient
   id="SVGID_42_"
   gradientUnits="userSpaceOnUse"
   x1="691.84888"
   y1="-351.01819"
   x2="691.84888"
   y2="-375.65421"
   gradientTransform="matrix(-0.3827,0.9239,-0.9239,-0.3827,-32.8342,-760.2682)">
						<stop
   offset="0"
   style="stop-color:#000000"
   id="stop91" />
						<stop
   offset="0.95"
   style="stop-color:#000000"
   id="stop92" />
						<stop
   offset="1"
   style="stop-color:#FFFFFF"
   id="stop93" />
					</linearGradient>
					<path
   class="st71"
   d="m 40.4,22.9 8,-3.3 c 0.8,-0.3 1.7,-0.3 2.5,-0.2 L 48.1,26 Z"
   id="path93" />
				</g>
			</mask>
			<path
   class="st72"
   d="m 40.4,22.9 8,-3.3 c 0.8,-0.3 1.7,-0.3 2.5,-0.2 L 48.1,26 Z"
   mask="url(#SVGID_41_)"
   id="path94" />
			<defs
   id="defs94">
				<filter
   id="Adobe_OpacityMaskFilter_21_"
   filterUnits="userSpaceOnUse"
   x="40.400002"
   y="19.299999"
   width="10.5"
   height="6.8000002">
					<feColorMatrix
   type="matrix"
   values="1 0 0 0 0  0 1 0 0 0  0 0 1 0 0  0 0 0 1 0"
   id="feColorMatrix94" />
				</filter>
			</defs>
			<mask
   maskUnits="userSpaceOnUse"
   x="40.4"
   y="19.3"
   width="10.5"
   height="6.8"
   id="SVGID_43_">
				<g
   class="st73"
   id="g96">
					
						<linearGradient
   id="SVGID_44_"
   gradientUnits="userSpaceOnUse"
   x1="670.03223"
   y1="-371.4874"
   x2="695.43091"
   y2="-371.4874"
   gradientTransform="matrix(-0.3827,0.9239,-0.9239,-0.3827,-32.8244,-760.2687)">
						<stop
   offset="0"
   style="stop-color:#000000"
   id="stop94" />
						<stop
   offset="0.975"
   style="stop-color:#000000"
   id="stop95" />
						<stop
   offset="1"
   style="stop-color:#FFFFFF"
   id="stop96" />
					</linearGradient>
					<path
   class="st74"
   d="m 40.4,22.9 8,-3.3 c 0.8,-0.3 1.7,-0.3 2.5,-0.2 L 48.1,26 Z"
   id="path96" />
				</g>
			</mask>
			<path
   class="st75"
   d="m 40.4,22.9 8,-3.3 c 0.8,-0.3 1.7,-0.3 2.5,-0.2 L 48.1,26 Z"
   mask="url(#SVGID_43_)"
   id="path97" />
			<defs
   id="defs97">
				<filter
   id="Adobe_OpacityMaskFilter_22_"
   filterUnits="userSpaceOnUse"
   x="17.200001"
   y="20.200001"
   width="7.6999998"
   height="9.8999996">
					<feColorMatrix
   type="matrix"
   values="1 0 0 0 0  0 1 0 0 0  0 0 1 0 0  0 0 0 1 0"
   id="feColorMatrix97" />
				</filter>
			</defs>
			<mask
   maskUnits="userSpaceOnUse"
   x="17.2"
   y="20.2"
   width="7.7"
   height="9.9"
   id="SVGID_45_">
				<g
   class="st76"
   id="g99">
					
						<linearGradient
   id="SVGID_46_"
   gradientUnits="userSpaceOnUse"
   x1="971.88177"
   y1="-303.8569"
   x2="971.88177"
   y2="-328.48959"
   gradientTransform="matrix(0.3827,0.9239,-0.9239,0.3827,-651.9756,-748.6749)">
						<stop
   offset="0"
   style="stop-color:#000000"
   id="stop97" />
						<stop
   offset="0.95"
   style="stop-color:#000000"
   id="stop98" />
						<stop
   offset="1"
   style="stop-color:#FFFFFF"
   id="stop99" />
					</linearGradient>
					<path
   class="st77"
   d="m 17.2,30.1 3.3,-8 c 0.4,-0.8 0.9,-1.4 1.6,-1.9 l 2.8,6.7 z"
   id="path99" />
				</g>
			</mask>
			<path
   class="st78"
   d="m 17.2,30.1 3.3,-8 c 0.4,-0.8 0.9,-1.4 1.6,-1.9 l 2.8,6.7 z"
   mask="url(#SVGID_45_)"
   id="path100" />
			<defs
   id="defs100">
				<filter
   id="Adobe_OpacityMaskFilter_23_"
   filterUnits="userSpaceOnUse"
   x="17.200001"
   y="20.200001"
   width="7.6999998"
   height="9.8999996">
					<feColorMatrix
   type="matrix"
   values="1 0 0 0 0  0 1 0 0 0  0 0 1 0 0  0 0 0 1 0"
   id="feColorMatrix100" />
				</filter>
			</defs>
			<mask
   maskUnits="userSpaceOnUse"
   x="17.2"
   y="20.2"
   width="7.7"
   height="9.9"
   id="SVGID_47_">
				<g
   class="st79"
   id="g102">
					
						<linearGradient
   id="SVGID_48_"
   gradientUnits="userSpaceOnUse"
   x1="950.06158"
   y1="-324.33139"
   x2="975.45978"
   y2="-324.33139"
   gradientTransform="matrix(0.3827,0.9239,-0.9239,0.3827,-651.9756,-748.6749)">
						<stop
   offset="0"
   style="stop-color:#000000"
   id="stop100" />
						<stop
   offset="0.975"
   style="stop-color:#000000"
   id="stop101" />
						<stop
   offset="1"
   style="stop-color:#FFFFFF"
   id="stop102" />
					</linearGradient>
					<path
   class="st80"
   d="m 17.2,30.1 3.3,-8 c 0.4,-0.8 0.9,-1.4 1.6,-1.9 l 2.8,6.7 z"
   id="path102" />
				</g>
			</mask>
			<path
   class="st81"
   d="m 17.2,30.1 3.3,-8 c 0.4,-0.8 0.9,-1.4 1.6,-1.9 l 2.8,6.7 z"
   mask="url(#SVGID_47_)"
   id="path103" />
			<defs
   id="defs103">
				<filter
   id="Adobe_OpacityMaskFilter_24_"
   filterUnits="userSpaceOnUse"
   x="24.1"
   y="83"
   width="10.5"
   height="6.8000002">
					<feColorMatrix
   type="matrix"
   values="1 0 0 0 0  0 1 0 0 0  0 0 1 0 0  0 0 0 1 0"
   id="feColorMatrix103" />
				</filter>
			</defs>
			<mask
   maskUnits="userSpaceOnUse"
   x="24.1"
   y="83"
   width="10.5"
   height="6.8"
   id="SVGID_49_">
				<g
   class="st82"
   id="g105">
					
						<linearGradient
   id="SVGID_50_"
   gradientUnits="userSpaceOnUse"
   x1="858.47113"
   y1="372.35281"
   x2="858.47113"
   y2="347.7189"
   gradientTransform="matrix(0.3827,-0.9239,0.9239,0.3827,-624.2866,746.3906)">
						<stop
   offset="0"
   style="stop-color:#000000"
   id="stop103" />
						<stop
   offset="0.95"
   style="stop-color:#000000"
   id="stop104" />
						<stop
   offset="1"
   style="stop-color:#FFFFFF"
   id="stop105" />
					</linearGradient>
					<path
   class="st83"
   d="m 34.6,86.2 -8,3.3 c -0.8,0.3 -1.7,0.3 -2.5,0.2 L 26.9,83 Z"
   id="path105" />
				</g>
			</mask>
			<path
   class="st84"
   d="m 34.6,86.2 -8,3.3 c -0.8,0.3 -1.7,0.3 -2.5,0.2 L 26.9,83 Z"
   mask="url(#SVGID_49_)"
   id="path106" />
			<defs
   id="defs106">
				<filter
   id="Adobe_OpacityMaskFilter_25_"
   filterUnits="userSpaceOnUse"
   x="24.1"
   y="83"
   width="10.5"
   height="6.8000002">
					<feColorMatrix
   type="matrix"
   values="1 0 0 0 0  0 1 0 0 0  0 0 1 0 0  0 0 0 1 0"
   id="feColorMatrix106" />
				</filter>
			</defs>
			<mask
   maskUnits="userSpaceOnUse"
   x="24.1"
   y="83"
   width="10.5"
   height="6.8"
   id="SVGID_51_">
				<g
   class="st85"
   id="g108">
					
						<linearGradient
   id="SVGID_52_"
   gradientUnits="userSpaceOnUse"
   x1="836.64771"
   y1="351.87741"
   x2="862.0495"
   y2="351.87741"
   gradientTransform="matrix(0.3827,-0.9239,0.9239,0.3827,-624.2866,746.3906)">
						<stop
   offset="0"
   style="stop-color:#000000"
   id="stop106" />
						<stop
   offset="0.975"
   style="stop-color:#000000"
   id="stop107" />
						<stop
   offset="1"
   style="stop-color:#FFFFFF"
   id="stop108" />
					</linearGradient>
					<path
   class="st86"
   d="m 34.6,86.2 -8,3.3 c -0.8,0.3 -1.7,0.3 -2.5,0.2 L 26.9,83 Z"
   id="path108" />
				</g>
			</mask>
			<path
   class="st87"
   d="m 34.6,86.2 -8,3.3 c -0.8,0.3 -1.7,0.3 -2.5,0.2 L 26.9,83 Z"
   mask="url(#SVGID_51_)"
   id="path109" />
			<defs
   id="defs109">
				<filter
   id="Adobe_OpacityMaskFilter_26_"
   filterUnits="userSpaceOnUse"
   x="50.099998"
   y="78.900002"
   width="7.6999998"
   height="9.8999996">
					<feColorMatrix
   type="matrix"
   values="1 0 0 0 0  0 1 0 0 0  0 0 1 0 0  0 0 0 1 0"
   id="feColorMatrix109" />
				</filter>
			</defs>
			<mask
   maskUnits="userSpaceOnUse"
   x="50.1"
   y="78.9"
   width="7.7"
   height="9.9"
   id="SVGID_53_">
				<g
   class="st88"
   id="g111">
					
						<linearGradient
   id="SVGID_54_"
   gradientUnits="userSpaceOnUse"
   x1="578.19031"
   y1="325.45432"
   x2="578.19031"
   y2="300.82211"
   gradientTransform="matrix(-0.3827,-0.9239,0.9239,-0.3827,-5.1446,734.7871)">
						<stop
   offset="0"
   style="stop-color:#000000"
   id="stop109" />
						<stop
   offset="0.95"
   style="stop-color:#000000"
   id="stop110" />
						<stop
   offset="1"
   style="stop-color:#FFFFFF"
   id="stop111" />
					</linearGradient>
					<path
   class="st89"
   d="m 57.8,78.9 -3.3,8 c -0.4,0.8 -0.9,1.4 -1.6,1.9 l -2.8,-6.7 z"
   id="path111" />
				</g>
			</mask>
			<path
   class="st90"
   d="m 57.8,78.9 -3.3,8 c -0.4,0.8 -0.9,1.4 -1.6,1.9 l -2.8,-6.7 z"
   mask="url(#SVGID_53_)"
   id="path112" />
			<defs
   id="defs112">
				<filter
   id="Adobe_OpacityMaskFilter_27_"
   filterUnits="userSpaceOnUse"
   x="50.099998"
   y="78.900002"
   width="7.6999998"
   height="9.8999996">
					<feColorMatrix
   type="matrix"
   values="1 0 0 0 0  0 1 0 0 0  0 0 1 0 0  0 0 0 1 0"
   id="feColorMatrix112" />
				</filter>
			</defs>
			<mask
   maskUnits="userSpaceOnUse"
   x="50.1"
   y="78.9"
   width="7.7"
   height="9.9"
   id="SVGID_55_">
				<g
   class="st91"
   id="g114">
					
						<linearGradient
   id="SVGID_56_"
   gradientUnits="userSpaceOnUse"
   x1="556.36951"
   y1="304.98029"
   x2="581.76819"
   y2="304.98029"
   gradientTransform="matrix(-0.3827,-0.9239,0.9239,-0.3827,-5.1446,734.7871)">
						<stop
   offset="0"
   style="stop-color:#000000"
   id="stop112" />
						<stop
   offset="0.975"
   style="stop-color:#000000"
   id="stop113" />
						<stop
   offset="1"
   style="stop-color:#FFFFFF"
   id="stop114" />
					</linearGradient>
					<path
   class="st92"
   d="m 57.8,78.9 -3.3,8 c -0.4,0.8 -0.9,1.4 -1.6,1.9 l -2.8,-6.7 z"
   id="path114" />
				</g>
			</mask>
			<path
   class="st93"
   d="m 57.8,78.9 -3.3,8 c -0.4,0.8 -0.9,1.4 -1.6,1.9 l -2.8,-6.7 z"
   mask="url(#SVGID_55_)"
   id="path115" />
			<path
   class="st9"
   d="m 5.8,51.6 -3.3,-8 C 2.2,42.8 2.2,41.9 2.3,41.1 L 9,43.9 Z"
   id="path116" />
			<defs
   id="defs116">
				<filter
   id="Adobe_OpacityMaskFilter_28_"
   filterUnits="userSpaceOnUse"
   x="2.3"
   y="41.099998"
   width="6.8000002"
   height="10.5">
					<feColorMatrix
   type="matrix"
   values="1 0 0 0 0  0 1 0 0 0  0 0 1 0 0  0 0 0 1 0"
   id="feColorMatrix116" />
				</filter>
			</defs>
			<mask
   maskUnits="userSpaceOnUse"
   x="2.3"
   y="41.1"
   width="6.8"
   height="10.5"
   id="SVGID_57_">
				<g
   class="st94"
   id="g118">
					
						<linearGradient
   id="SVGID_58_"
   gradientUnits="userSpaceOnUse"
   x1="1115.0264"
   y1="-93.136803"
   x2="1140.4312"
   y2="-93.136803"
   gradientTransform="matrix(0.9239,0.3827,-0.3827,0.9239,-1081.8947,-302.6758)">
						<stop
   offset="0"
   style="stop-color:#000000"
   id="stop116" />
						<stop
   offset="0.975"
   style="stop-color:#000000"
   id="stop117" />
						<stop
   offset="1"
   style="stop-color:#FFFFFF"
   id="stop118" />
					</linearGradient>
					<path
   class="st95"
   d="m 5.8,51.6 -3.3,-8 C 2.2,42.8 2.2,41.9 2.3,41.1 L 9,43.9 Z"
   id="path118" />
				</g>
			</mask>
			<path
   class="st96"
   d="m 5.8,51.6 -3.3,-8 C 2.2,42.8 2.2,41.9 2.3,41.1 L 9,43.9 Z"
   mask="url(#SVGID_57_)"
   id="path119" />
			<defs
   id="defs119">
				<filter
   id="Adobe_OpacityMaskFilter_29_"
   filterUnits="userSpaceOnUse"
   x="2.3"
   y="41.099998"
   width="6.8000002"
   height="10.5">
					<feColorMatrix
   type="matrix"
   values="1 0 0 0 0  0 1 0 0 0  0 0 1 0 0  0 0 0 1 0"
   id="feColorMatrix119" />
				</filter>
			</defs>
			<mask
   maskUnits="userSpaceOnUse"
   x="2.3"
   y="41.1"
   width="6.8"
   height="10.5"
   id="SVGID_59_">
				<g
   class="st97"
   id="g121">
					
						<linearGradient
   id="SVGID_60_"
   gradientUnits="userSpaceOnUse"
   x1="1136.8523"
   y1="-72.663696"
   x2="1136.8523"
   y2="-97.2948"
   gradientTransform="matrix(0.9239,0.3827,-0.3827,0.9239,-1081.8947,-302.6758)">
						<stop
   offset="0"
   style="stop-color:#000000"
   id="stop119" />
						<stop
   offset="0.95"
   style="stop-color:#000000"
   id="stop120" />
						<stop
   offset="1"
   style="stop-color:#FFFFFF"
   id="stop121" />
					</linearGradient>
					<path
   class="st98"
   d="m 5.8,51.6 -3.3,-8 C 2.2,42.8 2.2,41.9 2.3,41.1 L 9,43.9 Z"
   id="path121" />
				</g>
			</mask>
			<path
   class="st99"
   d="m 5.8,51.6 -3.3,-8 C 2.2,42.8 2.2,41.9 2.3,41.1 L 9,43.9 Z"
   mask="url(#SVGID_59_)"
   id="path122" />
			<path
   class="st4"
   d="m 13.1,74.8 -8,-3.3 C 4.3,71.1 3.7,70.6 3.2,69.9 l 6.7,-2.8 z"
   id="path123" />
			<defs
   id="defs123">
				<filter
   id="Adobe_OpacityMaskFilter_30_"
   filterUnits="userSpaceOnUse"
   x="3.2"
   y="67.099998"
   width="9.8999996"
   height="7.6999998">
					<feColorMatrix
   type="matrix"
   values="1 0 0 0 0  0 1 0 0 0  0 0 1 0 0  0 0 0 1 0"
   id="feColorMatrix123" />
				</filter>
			</defs>
			<mask
   maskUnits="userSpaceOnUse"
   x="3.2"
   y="67.1"
   width="9.9"
   height="7.7"
   id="SVGID_61_">
				<g
   class="st100"
   id="g125">
					
						<linearGradient
   id="SVGID_62_"
   gradientUnits="userSpaceOnUse"
   x1="1067.88"
   y1="187.1514"
   x2="1093.2821"
   y2="187.1514"
   gradientTransform="matrix(0.9239,-0.3827,0.3827,0.9239,-1070.2906,316.4743)">
						<stop
   offset="0"
   style="stop-color:#000000"
   id="stop123" />
						<stop
   offset="0.975"
   style="stop-color:#000000"
   id="stop124" />
						<stop
   offset="1"
   style="stop-color:#FFFFFF"
   id="stop125" />
					</linearGradient>
					<path
   class="st101"
   d="m 13.1,74.8 -8,-3.3 C 4.3,71.1 3.7,70.6 3.2,69.9 l 6.7,-2.8 z"
   id="path125" />
				</g>
			</mask>
			<path
   class="st102"
   d="m 13.1,74.8 -8,-3.3 C 4.3,71.1 3.7,70.6 3.2,69.9 l 6.7,-2.8 z"
   mask="url(#SVGID_61_)"
   id="path126" />
			<defs
   id="defs126">
				<filter
   id="Adobe_OpacityMaskFilter_31_"
   filterUnits="userSpaceOnUse"
   x="3.2"
   y="67.099998"
   width="9.8999996"
   height="7.6999998">
					<feColorMatrix
   type="matrix"
   values="1 0 0 0 0  0 1 0 0 0  0 0 1 0 0  0 0 0 1 0"
   id="feColorMatrix126" />
				</filter>
			</defs>
			<mask
   maskUnits="userSpaceOnUse"
   x="3.2"
   y="67.1"
   width="9.9"
   height="7.7"
   id="SVGID_63_">
				<g
   class="st103"
   id="g128">
					
						<linearGradient
   id="SVGID_64_"
   gradientUnits="userSpaceOnUse"
   x1="1089.7036"
   y1="207.6286"
   x2="1089.7036"
   y2="182.9926"
   gradientTransform="matrix(0.9239,-0.3827,0.3827,0.9239,-1070.2906,316.4743)">
						<stop
   offset="0"
   style="stop-color:#000000"
   id="stop126" />
						<stop
   offset="0.95"
   style="stop-color:#000000"
   id="stop127" />
						<stop
   offset="1"
   style="stop-color:#FFFFFF"
   id="stop128" />
					</linearGradient>
					<path
   class="st104"
   d="m 13.1,74.8 -8,-3.3 C 4.3,71.1 3.7,70.6 3.2,69.9 l 6.7,-2.8 z"
   id="path128" />
				</g>
			</mask>
			<path
   class="st105"
   d="m 13.1,74.8 -8,-3.3 C 4.3,71.1 3.7,70.6 3.2,69.9 l 6.7,-2.8 z"
   mask="url(#SVGID_63_)"
   id="path129" />
		</g>
	</g>
</g>
</svg>
