<svg width="256" height="256" viewBox="0 0 256 256" fill="none" xmlns="http://www.w3.org/2000/svg">
<path fill-rule="evenodd" clip-rule="evenodd" d="M126.8 0L168.857 24.381L58.2286 89.9048V146.286L18 122.819V63.3905L126.8 0ZM236.514 189.257L194.457 214.248V88.9908L143.562 59.1241L186.228 34.4384L236.514 63.6956V189.257ZM18 143.848V190.171L128.019 253.257L177.086 224.305L176.781 176.152L126.8 206.019L18 143.848Z" fill="#64BC4F"/>
<path fill-rule="evenodd" clip-rule="evenodd" d="M75.9048 123.125L94.4953 133.791V109.715L145.086 80.1531L126.8 68.877L75.9048 98.7436V123.125ZM156.057 86.5527L137.466 97.2193L158.8 109.715L158.495 166.705L177.085 156.038V98.7432L156.057 86.5527ZM147.829 152.686V173.41L126.8 185.905L75.9048 156.343V135.619L126.495 165.181L147.829 152.686Z" fill="#666666"/>
</svg>
